<?xml version="1.0" encoding="utf-8"?>
<!-- Generator: Adobe Illustrator 22.0.1, SVG Export Plug-In . SVG Version: 6.00 Build 0)  -->
<svg version="1.1" id="Слой_1" xmlns="http://www.w3.org/2000/svg" xmlns:xlink="http://www.w3.org/1999/xlink" x="0px" y="0px"
	 viewBox="0 0 21 20.4" style="enable-background:new 0 0 21 20.4;" xml:space="preserve">
<style type="text/css">
	.st0{fill:#FFFFFF;}
</style>
<g>
	<path class="st0" d="M12.5,10.9v2.3v2.3h-2.3H7.8l0-5.9c0-2.7,0-4.2,0-5c0-0.4,0-0.7,0-0.8c0-0.1,0-0.1,0-0.2c0,0,0-0.1,0-0.1
		c0,0-0.1-0.1-0.1-0.1C7.5,3.4,7.4,3.3,7.2,3.2C6.9,3,6.5,2.8,5.9,2.5C5,2,4.2,1.6,4.2,1.6c0,0,0.4,0,1.2,0c0.7,0,1.8,0,2.9,0h4.2
		v2.3v2.3h0.8H14l0-2.9c0-0.8,0-1.4,0-1.8c0-0.4,0-0.7,0-0.9c0-0.1,0-0.2,0-0.2s0-0.1-0.1-0.1s-0.1-0.1-0.1-0.1s-0.1,0-0.1-0.1
		c0,0-0.2,0-0.4,0c-0.3,0-0.7,0-1.2,0c-1.1,0-2.7,0-5,0C5.3,0,4,0,3,0S1.4,0,1,0c-0.2,0-0.4,0-0.5,0.1c-0.1,0-0.2,0.1-0.2,0.1
		S0.2,0.3,0.2,0.3c0,0,0,0.1-0.1,0.2c0,0,0,0.1,0,0.1s0,0.1,0,0.2C0,1,0,1.4,0,1.9c0,1.1,0,3.1,0,6.8l0,8l0.2,0.2
		c0,0,0.1,0.1,0.3,0.2c0.2,0.1,0.4,0.2,0.6,0.4c0.5,0.3,1.2,0.6,1.9,1c1.4,0.7,2.9,1.5,3.1,1.6c0.2,0.1,0.3,0.2,0.4,0.2
		c0.1,0,0.2,0.1,0.3,0.1c0.1,0,0.1,0,0.1,0c0,0,0.1,0,0.1,0c0.1,0,0.2-0.1,0.3-0.2l0.2-0.2v-1.3v-1.3l2.9,0l2.9,0l0.2-0.2l0.2-0.2
		v-2.9v-2.9h-0.8H12.5z"/>
	<path class="st0" d="M21,8.4c0-0.1-0.1-0.1-0.1-0.2c0-0.1-0.3-0.3-0.7-0.6c-0.4-0.3-0.9-0.7-1.5-1.1c-0.5-0.3-0.8-0.6-1.1-0.8
		c-0.3-0.2-0.5-0.3-0.6-0.4c-0.2-0.1-0.3-0.2-0.3-0.2c-0.1,0-0.2,0-0.2,0c-0.1,0-0.1,0-0.2,0c0,0-0.1,0-0.1,0S16,5.1,16,5.2
		c0,0-0.1,0.1-0.1,0.1l-0.2,0.2v1.1v1.1h-2.3c-0.6,0-1.1,0-1.5,0c-0.4,0-0.6,0-0.8,0c-0.1,0-0.2,0-0.2,0c-0.1,0-0.1,0-0.2,0.1
		c0,0-0.1,0.1-0.1,0.1c0,0-0.1,0.1-0.1,0.1c0,0.1-0.1,0.1-0.1,0.2c0,0.1,0,0.2,0,0.3c0,0.1,0,0.2,0.1,0.3c0,0.1,0.1,0.2,0.1,0.2
		l0.2,0.2l2.5,0l2.5,0v1.1c0,0.3,0,0.5,0,0.7c0,0.2,0,0.3,0.1,0.4c0,0.1,0,0.1,0.1,0.1c0,0,0.1,0.1,0.1,0.1C15.9,12,16,12,16.1,12
		c0.1,0.1,0.2,0.1,0.3,0.1c0,0,0.1,0,0.1,0c0,0,0.1,0,0.1,0c0.1,0,0.3-0.2,0.7-0.5c0.4-0.3,0.9-0.6,1.4-1c0.5-0.4,1-0.7,1.4-1
		s0.7-0.5,0.7-0.6c0-0.1,0.1-0.1,0.1-0.2s0-0.1,0-0.2C21,8.6,21,8.5,21,8.4z"/>
</g>
</svg>
