<?xml version="1.0" encoding="utf-8"?>
<!-- Generator: Adobe Illustrator 22.0.1, SVG Export Plug-In . SVG Version: 6.00 Build 0)  -->
<svg version="1.1" id="Слой_1" xmlns="http://www.w3.org/2000/svg" xmlns:xlink="http://www.w3.org/1999/xlink" x="0px" y="0px"
	 viewBox="0 0 110.7 52.7" style="enable-background:new 0 0 110.7 52.7;" xml:space="preserve">
<style type="text/css">
	.st0{enable-background:new    ;}
	.st1{fill:#CECECE;}
	.st2{fill:#A0A5A5;}
	.st3{fill:#FFFFFF;}
	.st4{fill:#11CAAD;}
	.st5{fill:url(#SVGID_1_);}
	.st6{fill:url(#SVGID_2_);}
</style>
<title>logo</title>
<g id="Слой_2_1_">
	<g id="sign_in">
		<g id="logo">
			<g class="st0">
				<path class="st1" d="M0.1,52.5l7.6-16.8H14c1.1,0,1.9,0.1,2.5,0.2c0.8,0.1,1.3,0.4,1.7,0.8c0.4,0.4,0.6,0.9,0.6,1.6
					c0,0.7-0.1,1.5-0.5,2.3c-0.6,1.4-1.6,2.6-3,3.6s-3.2,1.5-5.6,1.5H5.4l-3.1,6.8C2.3,52.5,0.1,52.5,0.1,52.5z M6.3,43.7h4.3
					c1.4,0,2.6-0.3,3.4-0.8s1.5-1.3,1.9-2.3c0.3-0.7,0.4-1.3,0.3-1.8s-0.4-0.8-1-1c-0.3-0.1-1-0.1-2-0.1H8.9L6.3,43.7z"/>
			</g>
			<g class="st0">
				<path class="st1" d="M21.7,51c-1.1,0.7-2,1.1-2.8,1.4s-1.6,0.4-2.5,0.4c-1.3,0-2.2-0.3-2.6-1s-0.4-1.5,0.1-2.5
					c0.3-0.6,0.6-1.1,1.1-1.6s1-0.9,1.6-1.2s1.2-0.5,1.8-0.7c0.5-0.1,1.1-0.2,2-0.3c1.8-0.2,3.1-0.4,4-0.7c0.1-0.3,0.2-0.5,0.3-0.5
					c0.4-0.8,0.5-1.4,0.2-1.8c-0.3-0.5-1-0.7-2-0.7s-1.8,0.2-2.4,0.5s-1.2,0.9-1.8,1.8l-1.9-0.3c0.6-0.9,1.2-1.6,1.8-2.1
					c0.7-0.5,1.5-0.9,2.4-1.2s1.9-0.4,3-0.4c1,0,1.8,0.1,2.4,0.4c0.5,0.2,0.9,0.6,1,0.9c0.1,0.4,0.1,0.8,0,1.4
					c-0.1,0.4-0.3,1-0.8,1.9l-1.2,2.8c-0.9,1.9-1.4,3.1-1.5,3.6s-0.2,1-0.1,1.5h-2.2C21.4,52.1,21.5,51.6,21.7,51z M23.6,46.4
					c-0.9,0.3-2.1,0.6-3.7,0.8c-0.9,0.1-1.6,0.3-2,0.4c-0.4,0.2-0.8,0.4-1.1,0.7c-0.3,0.3-0.6,0.6-0.7,1c-0.2,0.6-0.2,1,0,1.4
					c0.3,0.4,0.8,0.5,1.6,0.5c0.8,0,1.6-0.2,2.4-0.5s1.4-0.8,2-1.4c0.4-0.5,0.9-1.2,1.3-2.1L23.6,46.4z"/>
				<path class="st1" d="M27.6,52.5l5.5-12.2H35L34.2,42c1.5-1.3,3.1-2,4.8-2c0.7,0,1.4,0.1,1.8,0.4c0.5,0.3,0.8,0.6,0.9,1
					c0.1,0.4,0.1,0.9,0,1.5c-0.1,0.4-0.4,1.1-0.8,2l-3.4,7.5h-2.1l3.3-7.4c0.4-0.8,0.6-1.5,0.6-1.9s-0.1-0.7-0.4-1
					c-0.3-0.2-0.7-0.4-1.3-0.4c-0.9,0-1.8,0.3-2.7,0.8c-0.9,0.6-1.7,1.6-2.4,3.2l-3,6.7h-1.9V52.5z"/>
				<path class="st1" d="M52.1,48.6l2,0.3c-0.9,1.2-2,2.2-3.2,2.9s-2.5,1-4,1c-1.8,0-2.9-0.5-3.5-1.6c-0.5-1.1-0.4-2.6,0.5-4.6
					s2.2-3.6,3.7-4.8c1.6-1.1,3.2-1.7,4.9-1.7c1.6,0,2.7,0.6,3.2,1.7c0.5,1.1,0.3,2.7-0.6,4.7C55,46.6,55,46.8,54.8,47h-9.1
					c-0.5,1.3-0.6,2.4-0.2,3.1c0.4,0.7,1,1.1,2.1,1.1c0.8,0,1.5-0.2,2.2-0.6C50.7,50.1,51.4,49.5,52.1,48.6z M46.9,45.3h6.8
					c0.4-1,0.5-1.8,0.3-2.3c-0.3-0.8-1-1.2-2-1.2c-0.9,0-1.9,0.3-2.8,1C48.2,43.4,47.4,44.2,46.9,45.3z"/>
				<path class="st1" d="M56.5,52.5l7.6-16.8h2.1l-7.6,16.8H56.5z"/>
			</g>
			<g class="st0">
				<path class="st2" d="M68.2,52.5l0.6-8.1h1.4l-0.4,4.8c0,0.5-0.1,1.1-0.2,1.6c0.3-0.4,0.7-0.9,1.2-1.5l4-4.9h1.4l-6.7,8.1H68.2z"
					/>
				<path class="st2" d="M78.6,52.5h-1.4l3.9-8.7c-0.5,0.3-1,0.6-1.7,0.9c-0.7,0.3-1.3,0.5-1.8,0.7l0.6-1.3c0.9-0.4,1.8-0.8,2.6-1.3
					c0.8-0.5,1.4-1,1.9-1.5h0.9L78.6,52.5z"/>
				<path class="st2" d="M83.1,52.5l0.7-1.6h1.6l-0.8,1.6H83.1z"/>
				<path class="st2" d="M89.2,47.1c0.6-1.3,1.2-2.4,1.8-3.2c0.6-0.8,1.3-1.4,2-1.9s1.5-0.7,2.3-0.7c0.6,0,1.1,0.1,1.4,0.4
					c0.3,0.2,0.6,0.6,0.6,1c0.1,0.5,0.1,1-0.1,1.7s-0.4,1.5-0.9,2.6c-0.6,1.3-1.2,2.4-1.8,3.2c-0.6,0.8-1.3,1.4-2,1.9
					c-0.7,0.4-1.5,0.7-2.3,0.7c-1.1,0-1.7-0.4-2-1.2C88,50.7,88.3,49.2,89.2,47.1z M90.6,47.1c-0.8,1.8-1.2,3-1,3.6s0.5,0.9,1.2,0.9
					s1.3-0.3,2-0.9c0.7-0.6,1.5-1.8,2.3-3.6s1.2-3,1-3.6s-0.6-0.9-1.2-0.9s-1.2,0.3-1.9,0.8C92.3,44,91.5,45.2,90.6,47.1z"/>
				<path class="st2" d="M96.3,52.5l0.7-1.6h1.6l-0.7,1.6H96.3z"/>
				<path class="st2" d="M102.5,47.1c0.6-1.3,1.2-2.4,1.8-3.2c0.6-0.8,1.3-1.4,2-1.9s1.5-0.7,2.3-0.7c0.6,0,1.1,0.1,1.4,0.4
					c0.3,0.2,0.6,0.6,0.6,1c0.1,0.5,0.1,1-0.1,1.7s-0.4,1.5-0.9,2.6c-0.6,1.3-1.2,2.4-1.8,3.2c-0.6,0.8-1.3,1.4-2,1.9
					c-0.7,0.4-1.5,0.7-2.3,0.7c-1.1,0-1.7-0.4-2-1.2C101.2,50.7,101.6,49.2,102.5,47.1z M103.9,47.1c-0.8,1.8-1.2,3-1,3.6
					s0.5,0.9,1.2,0.9s1.3-0.3,2-0.9c0.7-0.6,1.5-1.8,2.3-3.6s1.2-3,1-3.6s-0.6-0.9-1.2-0.9s-1.2,0.3-1.9,0.8
					C105.5,44,104.7,45.2,103.9,47.1z"/>
			</g>
			<path class="st3" d="M61.3,9.9L37.5,9.7c-0.5,1.3-1,2.7-1.5,3.8h21.9L61.3,9.9z"/>
			<path class="st4" d="M26.9,9.7l2.6-5.9H48L49.6,0H25L14.8,23.1h25.1l1.7-3.8h-19l2.5-5.8c7.4,0.2,10,0.2,12.3-3.8L26.9,9.7z"/>
			
				<linearGradient id="SVGID_1_" gradientUnits="userSpaceOnUse" x1="65.9193" y1="1372.7664" x2="73.3893" y2="1379.4863" gradientTransform="matrix(1 0 0 1 0 -1370.55)">
				<stop  offset="0" style="stop-color:#6C6C6C"/>
				<stop  offset="0.38" style="stop-color:#838686"/>
				<stop  offset="0.74" style="stop-color:#929898"/>
				<stop  offset="1" style="stop-color:#989E9E"/>
			</linearGradient>
			<path class="st5" d="M74.5,0c-5.6,3.7-11.1,7.4-16.7,11.1h7.7C70.8,7.4,76.1,3.7,81.4,0H74.5z"/>
			
				<linearGradient id="SVGID_2_" gradientUnits="userSpaceOnUse" x1="61.2581" y1="1384.2244" x2="71.6681" y2="1393.5944" gradientTransform="matrix(1 0 0 1 0 -1370.55)">
				<stop  offset="0" style="stop-color:#6C6C6C"/>
				<stop  offset="0.38" style="stop-color:#838686"/>
				<stop  offset="0.74" style="stop-color:#929898"/>
				<stop  offset="1" style="stop-color:#989E9E"/>
			</linearGradient>
			<path class="st6" d="M60.4,14.6c1.4,2.8,2.8,5.7,4.3,8.6h6.9c-2-4-4-8-6-12C63.9,12.3,62.2,13.4,60.4,14.6z"/>
			<polyline class="st3" points="65.6,11.2 60.9,14.5 48.5,23.1 41.1,23.1 58,11.2 52.6,0 60.1,0 63.8,7.9 			"/>
			<polygon class="st4" points="108.7,0 107,3.8 96.4,3.8 87.9,23.1 81.7,23.1 90.3,3.8 79.7,3.8 81.4,0 			"/>
		</g>
	</g>
</g>
</svg>
